#!OML:ASF E:\emotionWalksFemale\Project 1\Capture day 1\Session 1\Female1.ASF
:FULLY-SPECIFIED
:DEGREES
376
root 9.16387 15.464 -11.4619 -186.121 -3.61079 -177.437
lowerback 12.9047 1.39591 2.6024
upperback -3.27347 2.33045 0.216919
thorax -10.7267 0.946368 -1.74354
lowerneck -6.33024 -4.24742 -6.8464
upperneck 0.842543 -5.32969 5.13978
head 1.73214 -2.6125 2.66454
rclavicle -2.48481e-017 -5.76476e-015
rhumerus -59.643 36.9178 -87.6498
rradius 84.3805
rwrist 4.50872
rhand -1.45064 -47.2881
rfingers 7.12502
rthumb 24.2002 -75.7812
lclavicle -2.48481e-017 -5.76476e-015
lhumerus -62.098 -19.1147 75.3912
lradius 102.117
lwrist 15.9277
lhand -18.2543 -57.7397
lfingers 7.12502
lthumb 8.02492 -27.9121
rfemur 4.37839 13.7113 30.8397
rtibia 14.9122
rfoot -16.025 -29.195
rtoes -14.5744
lfemur -3.75581 -16.278 -25.19
ltibia 27.674
lfoot -21.1266 15.3598
ltoes -33.6333
377
root 9.15681 15.4524 -11.4935 -187.341 -3.41099 -177.702
lowerback 13.9279 1.55177 2.39197
upperback -2.82199 2.5207 0.154268
thorax -10.8219 1.04978 -1.76274
lowerneck -6.81975 -4.4351 -6.705
upperneck 1.15572 -5.56373 5.02648
head 1.92875 -2.72609 2.58058
rclavicle -1.33931e-014 -4.96962e-015
rhumerus -58.9215 33.5538 -87.7299
rradius 80.6534
rwrist 7.71182
rhand -3.53801 -48.3486
rfingers 7.12502
rthumb 22.1975 -77.094
lclavicle -1.33931e-014 -4.96962e-015
lhumerus -62.6099 -15.361 75.5289
lradius 98.6931
lwrist 15.4734
lhand -18.8211 -57.39
lfingers 7.12502
lthumb 7.47784 -27.5422
rfemur 6.01015 13.7742 30.9687
rtibia 14.8859
rfoot -16.1877 -29.4708
rtoes -13.9845
lfemur -2.02668 -16.7387 -26.1672
ltibia 27.564
lfoot -21.4957 16.4111
ltoes -31.8803
378
root 9.1633 15.448 -11.4943 -187.683 -3.38869 -177.841
lowerback 14.463 1.64617 2.15875
upperback -2.72487 2.61117 0.0980283
thorax -11.031 1.10116 -1.73157
lowerneck -7.37722 -4.54575 -6.71759
upperneck 1.57922 -5.68662 5.08177
head 2.18179 -2.78064 2.58552
rclavicle -2.43263e-014 -9.54166e-015
rhumerus -58.0149 30.1185 -87.6045
rradius 76.6469
rwrist 10.9822
rhand -5.52377 -49.2011
rfingers 7.12502
rthumb 20.2901 -78.1612
lclavicle -2.43263e-014 -9.54166e-015
lhumerus -62.9793 -11.509 75.1595
lradius 94.8606
lwrist 15.1875
lhand -19.1994 -56.4233
lfingers 7.12502
lthumb 7.11271 -26.5629
rfemur 6.19558 13.7037 30.9442
rtibia 15.3043
rfoot -16.5298 -29.2546
rtoes -14.2922
lfemur -1.58774 -17.1537 -26.5466
ltibia 27.5447
lfoot -21.506 16.833
ltoes -30.8838
379
root 9.17837 15.4524 -11.4866 -187.186 -3.37998 -177.874
lowerback 14.2397 1.77622 1.89706
upperback -2.97701 2.73408 0.0578038
thorax -11.1872 1.17165 -1.65385
lowerneck -7.55999 -4.58371 -6.86463
upperneck 1.87889 -5.72734 5.30592
head 2.33438 -2.79438 2.68339
rclavicle 7.82715e-015 5.96354e-015
rhumerus -57.1572 26.4801 -87.2232
rradius 72.3729
rwrist 14.1252
rhand -7.44656 -49.6449
rfingers 7.12502
rthumb 18.4413 -78.7907
lclavicle 7.82715e-015 5.96354e-015
lhumerus -62.9948 -7.34972 74.2919
lradius 90.1326
lwrist 14.5764
lhand -19.157 -55.1101
lfingers 7.12502
lthumb 7.15356 -25.251
rfemur 5.17952 13.7547 30.7933
rtibia 16.0064
rfoot -16.8386 -29.1201
rtoes -14.24
lfemur -2.28239 -17.4464 -26.3781
ltibia 27.6458
lfoot -21.4267 17.0514
ltoes -30.6858
380
root 9.18872 15.4529 -11.505 -186.741 -3.31674 -177.975
lowerback 13.472 1.95976 1.61259
upperback -3.14243 2.91072 0.0137763
thorax -10.9244 1.27843 -1.55331
lowerneck -7.52521 -4.68148 -7.07351
upperneck 2.18296 -5.85114 5.46976
head 2.45491 -2.85304 2.77162
rclavicle -6.33626e-015 -1.78906e-015
rhumerus -56.2881 22.695 -86.5
rradius 67.85
rwrist 17.1748
rhand -9.10169 -49.8254
rfingers 7.12502
rthumb 16.8486 -79.1145
lclavicle -6.33626e-015 -1.78906e-015
lhumerus -62.8354 -3.08473 73.0443
lradius 84.6765
lwrist 13.5205
lhand -19.0596 -53.895
lfingers 7.12502
lthumb 7.24765 -24.0391
rfemur 4.33452 13.8073 30.5881
rtibia 16.7867
rfoot -17.532 -29.0973
rtoes -13.3571
lfemur -2.77828 -17.5432 -26.3314
ltibia 27.8194
lfoot -21.4354 17.3209
ltoes -31.8498
381
root 9.19333 15.4467 -11.5381 -186.625 -3.27638 -178.052
lowerback 12.5982 2.09355 1.47897
upperback -3.16303 3.0443 -0.0442928
thorax -10.4311 1.35902 -1.53083
lowerneck -7.51901 -4.85963 -7.02869
upperneck 2.68857 -6.08624 5.23458
head 2.62791 -2.97379 2.66901
rclavicle 2.13694e-014 -5.1684e-015
rhumerus -55.2916 18.9798 -85.6489
rradius 63.0143
rwrist 19.5765
rhand -10.3446 -50.1189
rfingers 7.12502
rthumb 15.6518 -79.5058
lclavicle 2.13694e-014 -5.1684e-015
lhumerus -62.8042 1.13439 71.3506
lradius 78.934
lwrist 11.8625
lhand -19.0858 -52.6352
lfingers 7.12502
lthumb 7.22229 -22.7785
rfemur 4.01254 13.7853 30.5033
rtibia 17.4982
rfoot -18.4914 -29.0856
rtoes -13.2647
lfemur -2.74068 -17.3124 -26.3689
ltibia 27.9039
lfoot -21.6093 17.5574
ltoes -33.6924
382
root 9.19413 15.4411 -11.5717 -186.551 -3.42249 -178.374
lowerback 11.7732 2.15696 1.18029
upperback -3.23137 3.0499 -0.218354
thorax -10.0266 1.38156 -1.51465
lowerneck -7.74999 -5.04031 -6.61482
upperneck 3.64035 -6.3257 4.53373
head 2.95883 -3.10394 2.33417
rclavicle 3.54831e-014 1.39149e-014
rhumerus -54.3156 15.2356 -84.7307
rradius 58.0608
rwrist 21.1144
rhand -11.2198 -50.8421
rfingers 7.12502
rthumb 14.8087 -80.293
lclavicle 3.54831e-014 1.39149e-014
lhumerus -62.8081 5.08227 69.2031
lradius 72.9192
lwrist 9.60201
lhand -19.3358 -50.7646
lfingers 7.12502
lthumb 6.98101 -20.8998
rfemur 3.92153 13.7601 30.1434
rtibia 17.9377
rfoot -18.9893 -29.1948
rtoes -14.9403
lfemur -2.57358 -16.9996 -26.6591
ltibia 27.8644
lfoot -22.0235 17.8017
ltoes -34.5314
383
root 9.19453 15.4419 -11.605 -186.392 -3.73065 -178.724
lowerback 11.0417 2.17442 0.818179
upperback -3.43691 2.99009 -0.384035
thorax -9.83408 1.37019 -1.44868
lowerneck -7.2071 -4.926 -6.8925
upperneck 3.99045 -6.2041 4.81059
head 2.99459 -3.04599 2.49573
rclavicle -1.09332e-015 8.74653e-015
rhumerus -53.6332 11.2875 -83.4751
rradius 53.3789
rwrist 22.4681
rhand -11.6108 -51.6467
rfingers 7.12502
rthumb 14.432 -81.1249
lclavicle -1.09332e-015 8.74653e-015
lhumerus -62.8454 8.50331 66.8019
lradius 66.5588
lwrist 7.11348
lhand -19.8249 -48.8942
lfingers 7.12502
lthumb 6.50889 -19.0142
rfemur 3.88838 13.8052 29.733
rtibia 18.0515
rfoot -19.0564 -29.4709
rtoes -16.5553
lfemur -2.48164 -16.9194 -26.9328
ltibia 27.7639
lfoot -22.4841 18.3126
ltoes -34.1839
384
root 9.19766 15.4477 -11.6404 -186.158 -4.01449 -178.635
lowerback 10.3392 2.1454 0.773985
upperback -3.76064 2.93228 -0.371476
thorax -9.78121 1.34197 -1.37605
lowerneck -7.87102 -5.08718 -6.92974
upperneck 5.47665 -6.38346 4.4594
head 3.63465 -3.14708 2.35694
rclavicle -2.22142e-014 -3.18055e-015
rhumerus -53.2504 7.34558 -81.8765
rradius 48.9883
rwrist 23.6602
rhand -11.8209 -52.069
rfingers 7.12502
rthumb 14.2296 -81.5616
lclavicle -2.22142e-014 -3.18055e-015
lhumerus -62.929 11.5715 64.0855
lradius 59.7842
lwrist 4.45375
lhand -19.9598 -47.6655
lfingers 7.12502
lthumb 6.37864 -17.7816
rfemur 3.8412 14.0303 29.8552
rtibia 17.9809
rfoot -19.1997 -29.9567
rtoes -17.7182
lfemur -2.47263 -17.0118 -26.6731
ltibia 27.6238
lfoot -22.8993 19.3618
ltoes -34.1193
